<svg width="16" height="16" viewBox="0 0 16 16" fill="none" xmlns="http://www.w3.org/2000/svg">
<path d="M10.6834 15.6066H14.6907C15.4116 15.6066 16 15.0347 16 14.3294V1.27715C16 0.57395 15.4137 0 14.6907 0H1.30935C0.58842 0 0 0.5718 0 1.27715V14.3294C0 15.0326 0.58621 15.6066 1.30935 15.6066H7.9878V10.3869H5.34803V7.8111H7.9878V5.75764C7.9583 3.19217 9.3257 2.60109 11.6027 2.60109C12.6933 2.60109 13.0595 2.71455 13.3328 2.75132C13.3328 2.75132 13.3328 4.33238 13.3328 5.22215C13.3328 5.22283 12.1126 5.22215 12.1126 5.22215C10.8655 5.22215 10.753 5.56462 10.6834 6.4483V7.8111H13.3328L13.1394 10.3869H10.6834V15.6066Z" fill="black"/>
</svg>
