<svg width="24" height="24" viewBox="0 0 24 24" fill="none" xmlns="http://www.w3.org/2000/svg">
<path d="M18 5H6C4.89543 5 4 5.89543 4 7V17C4 18.1046 4.89543 19 6 19H18C19.1046 19 20 18.1046 20 17V7C20 5.89543 19.1046 5 18 5Z" stroke="black" stroke-width="2"/>
<path d="M19.5 10.5H4.5V11.5H19.5V10.5Z" fill="black" stroke="black"/>
<mask id="mask0" mask-type="alpha" maskUnits="userSpaceOnUse" x="6" y="7" width="8" height="2">
<path fill-rule="evenodd" clip-rule="evenodd" d="M8 8C8 8.55228 7.55228 9 7 9C6.44772 9 6 8.55228 6 8C6 7.44772 6.44772 7 7 7C7.55228 7 8 7.44772 8 8ZM11 8C11 8.55228 10.5523 9 10 9C9.44772 9 9 8.55228 9 8C9 7.44772 9.44772 7 10 7C10.5523 7 11 7.44772 11 8ZM13 9C13.5523 9 14 8.55228 14 8C14 7.44772 13.5523 7 13 7C12.4477 7 12 7.44772 12 8C12 8.55228 12.4477 9 13 9Z" fill="white"/>
</mask>
<g mask="url(#mask0)">
<path fill-rule="evenodd" clip-rule="evenodd" d="M8 8C8 8.55228 7.55228 9 7 9C6.44772 9 6 8.55228 6 8C6 7.44772 6.44772 7 7 7C7.55228 7 8 7.44772 8 8ZM11 8C11 8.55228 10.5523 9 10 9C9.44772 9 9 8.55228 9 8C9 7.44772 9.44772 7 10 7C10.5523 7 11 7.44772 11 8ZM13 9C13.5523 9 14 8.55228 14 8C14 7.44772 13.5523 7 13 7C12.4477 7 12 7.44772 12 8C12 8.55228 12.4477 9 13 9Z" fill="black"/>
<path d="M7 10C8.10457 10 9 9.10457 9 8H7V10ZM5 8C5 9.10457 5.89543 10 7 10V8H5ZM7 6C5.89543 6 5 6.89543 5 8H7V6ZM9 8C9 6.89543 8.10457 6 7 6V8H9ZM10 10C11.1046 10 12 9.10457 12 8H10V10ZM8 8C8 9.10457 8.89543 10 10 10V8H8ZM10 6C8.89543 6 8 6.89543 8 8H10V6ZM12 8C12 6.89543 11.1046 6 10 6V8H12ZM13 8V10C14.1046 10 15 9.10457 15 8H13ZM13 8H15C15 6.89543 14.1046 6 13 6V8ZM13 8V6C11.8954 6 11 6.89543 11 8H13ZM13 8H11C11 9.10457 11.8954 10 13 10V8Z" fill="black"/>
</g>
</svg>
