<svg width="18" height="14" viewBox="0 0 18 14" fill="none" xmlns="http://www.w3.org/2000/svg">
<path d="M18 1.60597C17.3382 1.87847 16.6264 2.06199 15.8789 2.14499C16.6417 1.72124 17.2276 1.0499 17.5028 0.25037C16.789 0.64276 15.9992 0.92817 15.1579 1.08171C14.4844 0.4159 13.5242 0 12.4621 0C10.4226 0 8.7695 1.53312 8.7695 3.42496C8.7695 3.69332 8.8017 3.95475 8.8649 4.20512C5.79588 4.06219 3.07462 2.69875 1.2533 0.62662C0.93564 1.13289 0.7531 1.72078 0.7531 2.34879C0.7531 3.53701 1.40473 4.58507 2.39596 5.1992C1.79021 5.1817 1.22118 5.0277 0.72353 4.77134C0.72302 4.78563 0.72302 4.79947 0.72302 4.81376C0.72302 6.4737 1.9962 7.8579 3.68545 8.1728C3.37544 8.2507 3.04912 8.2927 2.7126 8.2927C2.47447 8.2927 2.24299 8.271 2.01762 8.2309C2.48773 9.592 3.85117 10.582 5.467 10.6096C4.2035 11.5286 2.61113 12.0759 0.88108 12.0759C0.5828 12.0759 0.28911 12.0598 0 12.028C1.6347 12.9995 3.57532 13.5671 5.66076 13.5671C12.4535 13.5671 16.1684 8.3475 16.1684 3.82197C16.1684 3.67349 16.165 3.52548 16.1573 3.37885C16.8787 2.89609 17.5054 2.29253 18 1.60597Z" fill="black"/>
</svg>
