<svg width="18" height="18" viewBox="0 0 18 18" fill="none" xmlns="http://www.w3.org/2000/svg">
<path fill-rule="evenodd" clip-rule="evenodd" d="M5.35167 0.0532999C6.38675 0.0060799 6.76563 0 9 0C11.2344 0 11.6133 0.0060799 12.6483 0.0532999C13.5406 0.0939999 14.2118 0.22886 14.8451 0.47498C15.4755 0.71985 15.9798 1.04356 16.4677 1.53148C16.9557 2.0195 17.2796 2.52386 17.5248 3.15436C17.771 3.788 17.906 4.45946 17.9466 5.35203C17.994 6.38702 18 6.7659 18 9C18 11.2341 17.994 11.613 17.9466 12.648C17.906 13.5405 17.771 14.212 17.5248 14.8456C17.2796 15.4761 16.9557 15.9805 16.4677 16.4686C15.9798 16.9564 15.4755 17.2801 14.8452 17.5251C14.2118 17.7711 13.5406 17.906 12.6483 17.9466C11.6133 17.994 11.2344 18 9 18C6.76563 18 6.38675 17.994 5.35167 17.9466C4.45937 17.906 3.7882 17.7711 3.15482 17.5251C2.52451 17.2801 2.02028 16.9564 1.53226 16.4685C1.04419 15.9805 0.72031 15.4761 0.47529 14.8456C0.22899 14.212 0.0940399 13.5406 0.0533199 12.648C0.00608993 11.613 0 11.2341 0 9C0 6.7659 0.00608993 6.38702 0.0533199 5.35203C0.0940399 4.45942 0.22899 3.78796 0.47529 3.15436C0.72031 2.52388 1.04419 2.01951 1.53228 1.53148C2.02029 1.04356 2.52454 0.71985 3.15481 0.47498C3.78816 0.22886 4.45933 0.0939999 5.35167 0.0532999ZM12.5601 1.98489C11.5549 1.93905 11.2083 1.93359 8.9997 1.93359C6.79108 1.93359 6.44447 1.93905 5.43922 1.98489C4.72984 2.01724 4.27343 2.11424 3.85303 2.2776C3.46266 2.42929 3.18847 2.60764 2.89625 2.89985C2.6041 3.19194 2.42583 3.46588 2.27423 3.8559C2.11099 4.2759 2.01406 4.73186 1.98173 5.44071C1.93587 6.44573 1.93042 6.79223 1.93042 9.0005C1.93042 11.2087 1.93587 11.5551 1.98173 12.5602C2.01406 13.269 2.11099 13.7249 2.27425 14.145C2.42582 14.5349 2.60408 14.8089 2.89626 15.101C3.18847 15.3933 3.46266 15.5716 3.85303 15.7233C4.27343 15.8866 4.72984 15.9837 5.43922 16.0159C6.44437 16.0618 6.79092 16.0672 8.9997 16.0672C11.2084 16.0672 11.555 16.0618 12.5601 16.0159C13.2695 15.9837 13.726 15.8866 14.1464 15.7233C14.5367 15.5716 14.8108 15.3933 15.1031 15.101C15.3952 14.8089 15.5735 14.5351 15.7251 14.145C15.8884 13.7249 15.9853 13.269 16.0176 12.5602C16.0635 11.5552 16.0689 11.2087 16.0689 9.0005C16.0689 6.79223 16.0635 6.44573 16.0176 5.4407C15.9853 4.73186 15.8884 4.2759 15.7251 3.8559C15.5735 3.4659 15.3952 3.19194 15.1031 2.89983C14.8108 2.60764 14.5367 2.42929 14.1463 2.2776C13.726 2.11424 13.2695 2.01724 12.5601 1.98489ZM4.29517 9.0002C4.29517 6.4014 6.40162 4.29526 8.9994 4.29526C11.5972 4.29526 13.7037 6.4014 13.7037 9.0002C13.7037 11.5989 11.5972 13.7051 8.9994 13.7051C6.40163 13.7051 4.29517 11.5989 4.29517 9.0002ZM6.22681 9.0006C6.22681 10.5311 7.4683 11.7724 9.0003 11.7724C10.5324 11.7724 11.7738 10.5311 11.7738 9.0006C11.7738 7.4701 10.5324 6.22885 9.0003 6.22885C7.4682 6.22885 6.22681 7.4701 6.22681 9.0006ZM13.7139 5.34501C14.2992 5.34501 14.7735 4.8707 14.7735 4.28557C14.7735 3.70044 14.2992 3.2261 13.7139 3.2261C13.1287 3.2261 12.6543 3.70044 12.6543 4.28557C12.6543 4.8707 13.1287 5.34501 13.7139 5.34501Z" fill="black"/>
</svg>
