<svg width="24" height="28" viewBox="0 0 24 28" fill="none" xmlns="http://www.w3.org/2000/svg">
<path fill-rule="evenodd" clip-rule="evenodd" d="M11.3939 23.3268V27.6904L13.1273 26.8541C19.3455 23.8601 23.5152 17.8237 23.5152 11.8237C23.5152 5.47223 18.3515 0.308594 12 0.308594C5.64848 0.308594 0.484848 5.47223 0.484848 11.8237C0.484848 17.9692 5.32121 23.0116 11.3939 23.3268ZM2.90909 11.8237C2.90909 6.80556 6.98182 2.73284 12 2.73284C17.0182 2.73284 21.0909 6.80556 21.0909 11.8237C21.0909 16.3328 18.2303 20.9147 13.8182 23.7025V20.9147H12C6.98182 20.9147 2.90909 16.8419 2.90909 11.8237ZM13.2121 16.6722V19.0965H10.7879V16.6722H13.2121ZM12.9339 11.0015C11.9298 11.7711 10.7879 12.6464 10.7879 14.854H13.2121C13.2121 13.5263 14.074 12.7732 14.9585 12.0002C15.8909 11.1853 16.8485 10.3485 16.8485 8.79344C16.8485 6.11465 14.6788 3.94496 12 3.94496C9.32121 3.94496 7.15152 6.11465 7.15152 8.79344H9.57576C9.57576 7.46011 10.6667 6.3692 12 6.3692C13.3333 6.3692 14.4242 7.46011 14.4242 8.79344C14.4242 9.85916 13.7215 10.3978 12.9339 11.0015Z" fill="#304C82"/>
</svg>
