<svg width="48" height="48" viewBox="0 0 48 48" fill="none" xmlns="http://www.w3.org/2000/svg">
<g clip-path="url(#clip0)">
<path d="M41.7923 44.0002C43.0114 44.0002 44 43.0117 44 41.7925V6.20766C44 4.98828 43.0114 4 41.7923 4H6.20766C4.98812 4 4 4.98828 4 6.20766V41.7925C4 43.0117 4.98812 44.0002 6.20766 44.0002H41.7923Z" fill="#395185"/>
<path d="M31.5991 43.9998V28.5096H36.7986L37.577 22.4729H31.5991V18.6185C31.5991 16.8707 32.0845 15.6796 34.5909 15.6796L37.7877 15.6782V10.279C37.2345 10.2054 35.337 10.041 33.1295 10.041C28.5205 10.041 25.3652 12.8543 25.3652 18.0209V22.4729H20.1523V28.5096H25.3652V43.9998H31.5991Z" fill="white"/>
</g>
<defs>
<clipPath id="clip0">
<rect x="4" y="4" width="40" height="40" fill="white"/>
</clipPath>
</defs>
</svg>
