<svg width="107" height="22" viewBox="0 0 107 22" fill="none" xmlns="http://www.w3.org/2000/svg">
<path d="M32.7245 0.90332C30.7335 0.90332 28.9307 1.35062 27.3433 2.21741C25.7559 3.11217 24.5183 4.31464 23.6035 5.8525C22.6887 7.41833 22.2584 9.15187 22.2584 11.0812C22.2584 13.0385 22.6887 14.772 23.6035 16.3099C24.5183 17.8757 25.7559 19.0782 27.3433 19.945C28.9307 20.8397 30.7335 21.2591 32.7245 21.2591C34.7155 21.2591 36.4913 20.8397 38.0787 19.945C39.6662 19.0782 40.9037 17.8757 41.8185 16.3099C42.7333 14.772 43.1907 13.0385 43.1907 11.0812C43.1907 9.15187 42.7333 7.41833 41.8185 5.8525C40.9037 4.31464 39.6662 3.11217 38.0787 2.21741C36.4913 1.35062 34.7155 0.90332 32.7245 0.90332ZM95.8016 0.90332C93.8106 0.90332 92.0078 1.35062 90.4204 2.21741C88.8329 3.11217 87.5954 4.31464 86.6806 5.8525C85.7658 7.41833 85.3355 9.15187 85.3355 11.0812C85.3355 13.0385 85.7658 14.772 86.6806 16.3099C87.5954 17.8757 88.8329 19.0782 90.4204 19.945C92.0078 20.8397 93.8106 21.2591 95.8016 21.2591C97.7926 21.2591 99.5684 20.8397 101.156 19.945C102.743 19.0782 103.981 17.8757 104.896 16.3099C105.81 14.772 106.268 13.0385 106.268 11.0812C106.268 9.15187 105.81 7.41833 104.896 5.8525C103.981 4.31464 102.743 3.11217 101.156 2.21741C99.5684 1.35062 97.7926 0.90332 95.8016 0.90332ZM0.694794 1.2947V5.65681H8.98158C10.0578 5.65681 10.8919 5.90821 11.4569 6.41151C11.995 6.91481 12.2911 7.64206 12.2911 8.53682C12.2911 9.45953 11.995 10.1584 11.4569 10.6617C10.8919 11.165 10.0578 11.3888 8.98158 11.3888H0.694794V20.8677H6.02201V15.6667H8.92793L12.3448 20.8677H18.0486L13.9862 14.7163C15.1431 14.1291 16.0577 13.3182 16.7035 12.2557C17.3492 11.1932 17.672 9.96284 17.672 8.53682C17.672 7.08284 17.3224 5.79652 16.6498 4.70604C15.9503 3.61555 14.9815 2.77653 13.7439 2.18935C12.4793 1.60216 10.9996 1.2947 9.30454 1.2947H0.694794ZM48.5967 1.2947V20.8677H62.9103V16.4779H53.9239V1.2947H48.5967ZM67.608 1.2947V20.8677H81.9216V16.4779H72.9352V1.2947H67.608ZM32.7245 5.4888C33.6662 5.4888 34.5272 5.74076 35.3075 6.18814C36.0608 6.66348 36.6795 7.33428 37.1369 8.17312C37.5674 9.01195 37.8094 9.9907 37.8094 11.0812C37.8094 12.1996 37.5674 13.1781 37.1369 14.0169C36.6795 14.8558 36.0608 15.5269 35.3075 15.9742C34.5272 16.4496 33.6662 16.6736 32.7245 16.6736C31.7559 16.6736 30.8949 16.4496 30.1416 15.9742C29.3613 15.5269 28.7427 14.8558 28.3122 14.0169C27.8548 13.1781 27.6392 12.1996 27.6392 11.0812C27.6392 9.9907 27.8548 9.01195 28.3122 8.17312C28.7427 7.33428 29.3613 6.66348 30.1416 6.18814C30.8949 5.74076 31.7559 5.4888 32.7245 5.4888ZM95.8016 5.4888C96.7433 5.4888 97.6043 5.74076 98.3845 6.18814C99.1379 6.66348 99.7565 7.33428 100.214 8.17312C100.644 9.01195 100.886 9.9907 100.886 11.0812C100.886 12.1996 100.644 13.1781 100.214 14.0169C99.7565 14.8558 99.1379 15.5269 98.3845 15.9742C97.6043 16.4496 96.7433 16.6736 95.8016 16.6736C94.833 16.6736 93.972 16.4496 93.2186 15.9742C92.4384 15.5269 91.8197 14.8558 91.3892 14.0169C90.9319 13.1781 90.7163 12.1996 90.7163 11.0812C90.7163 9.9907 90.9319 9.01195 91.3892 8.17312C91.8197 7.33428 92.4384 6.66348 93.2186 6.18814C93.972 5.74076 94.833 5.4888 95.8016 5.4888Z" fill="#304C82"/>
</svg>
