<svg width="14" height="19" viewBox="0 0 14 19" fill="none" xmlns="http://www.w3.org/2000/svg">
<path d="M9.24178 3.56673C10.1584 3.56673 10.9084 2.81673 10.9084 1.90007C10.9084 0.983398 10.1584 0.233398 9.24178 0.233398C8.32511 0.233398 7.57511 0.983398 7.57511 1.90007C7.57511 2.81673 8.32511 3.56673 9.24178 3.56673ZM6.24178 15.1501L7.07511 11.4834L8.82511 13.1501V18.1501H10.4918V11.9001L8.74178 10.2334L9.24178 7.7334C10.3251 8.9834 11.9918 9.81673 13.8251 9.81673V8.15006C12.2418 8.15006 10.9084 7.31673 10.2418 6.15006L9.40845 4.81673C9.07511 4.31673 8.57511 3.9834 7.99178 3.9834C7.74178 3.9834 7.57511 4.06673 7.32511 4.06673L2.99178 5.90006V9.81673H4.65845V6.9834L6.15845 6.40006L4.82511 13.1501L0.74178 12.3167L0.408447 13.9834L6.24178 15.1501Z" fill="#304C82"/>
</svg>
