<svg width="18" height="20" viewBox="0 0 18 20" fill="none" xmlns="http://www.w3.org/2000/svg">
<path d="M14.5 13.7397C13.8033 13.7397 13.18 14.0147 12.7033 14.4455L6.1675 10.6413C6.21333 10.4305 6.25 10.2197 6.25 9.99967C6.25 9.77967 6.21333 9.56884 6.1675 9.35801L12.63 5.59051C13.125 6.04884 13.7758 6.33301 14.5 6.33301C16.0217 6.33301 17.25 5.10467 17.25 3.58301C17.25 2.06134 16.0217 0.833008 14.5 0.833008C12.9783 0.833008 11.75 2.06134 11.75 3.58301C11.75 3.80301 11.7867 4.01384 11.8325 4.22467L5.37 7.99217C4.875 7.53384 4.22417 7.24967 3.5 7.24967C1.97833 7.24967 0.75 8.47801 0.75 9.99967C0.75 11.5213 1.97833 12.7497 3.5 12.7497C4.22417 12.7497 4.875 12.4655 5.37 12.0072L11.8967 15.8205C11.8508 16.013 11.8233 16.2147 11.8233 16.4163C11.8233 17.8922 13.0242 19.093 14.5 19.093C15.9758 19.093 17.1767 17.8922 17.1767 16.4163C17.1767 14.9405 15.9758 13.7397 14.5 13.7397Z" fill="#304C82"/>
</svg>
