<svg width="30" height="30" viewBox="0 0 30 30" fill="none" xmlns="http://www.w3.org/2000/svg">
<path fill-rule="evenodd" clip-rule="evenodd" d="M11.3637 26.9387H22.2727C23.2788 26.9387 24.1394 26.3327 24.5031 25.4599L28.1637 16.9145C28.2727 16.6357 28.3334 16.3448 28.3334 16.0296V13.6054C28.3334 12.272 27.2424 11.1811 25.9091 11.1811H18.2606L19.4121 5.64174L19.4485 5.25386C19.4485 4.7569 19.2424 4.29629 18.9152 3.96902L17.6303 2.69629L9.64244 10.6842C9.20608 11.1205 8.93941 11.7266 8.93941 12.3933V24.5145C8.93941 25.8478 10.0303 26.9387 11.3637 26.9387ZM11.3637 12.3933L16.6243 7.13265L15 13.6054H25.9091V16.0296L22.2727 24.5145H11.3637V12.3933ZM6.51517 12.3933H1.66669V26.9387H6.51517V12.3933Z" fill="#304C82"/>
</svg>
