<svg width="48" height="48" viewBox="0 0 48 48" fill="none" xmlns="http://www.w3.org/2000/svg">
<g clip-path="url(#clip0)">
<path d="M44 11.8968C42.5281 12.5363 40.9466 12.9685 39.2866 13.163C40.9811 12.1678 42.2822 10.5918 42.8948 8.71407C41.284 9.65078 39.5216 10.3107 37.6838 10.6655C36.1867 9.10267 34.0541 8.12598 31.6936 8.12598C27.1614 8.12598 23.4869 11.7265 23.4869 16.1673C23.4869 16.7977 23.5595 17.4113 23.6994 18C16.8791 17.6646 10.8322 14.4632 6.78453 9.59798C6.07828 10.7857 5.67359 12.1672 5.67359 13.6407C5.67359 16.4307 7.1225 18.8919 9.32438 20.3341C8.02117 20.2941 6.74664 19.9491 5.60719 19.3281C5.60672 19.3618 5.60672 19.3955 5.60672 19.4293C5.60672 23.3255 8.43547 26.5757 12.1895 27.3145C10.9811 27.6365 9.71348 27.6837 8.48359 27.4523C9.52781 30.6471 12.5586 32.9719 16.1495 33.037C13.3409 35.1937 9.80234 36.4794 5.95766 36.4794C5.29516 36.4794 4.64203 36.4412 4 36.367C7.63172 38.6486 11.9453 39.9799 16.5797 39.9799C31.6745 39.9799 39.9287 27.7264 39.9287 17.0999C39.9287 16.7511 39.9209 16.4043 39.905 16.0595C41.5116 14.9214 42.8983 13.5118 44 11.8968Z" fill="#55ACEE"/>
</g>
<defs>
<clipPath id="clip0">
<rect x="4" y="8" width="40" height="32" fill="white"/>
</clipPath>
</defs>
</svg>
